<?xml version="1.0" encoding="UTF-8"?>
<svg id="Laag_1" xmlns="http://www.w3.org/2000/svg" version="1.1" viewBox="0 0 166.6 212.2">
  <!-- Generator: Adobe Illustrator 29.1.0, SVG Export Plug-In . SVG Version: 2.1.0 Build 142)  -->
  <defs>
    <style>
      .st0 {
        fill: #fff;
      }
    </style>
  </defs>
  <path class="st0" d="M154.6,175.9h2.5c1.3,0,2.2,1.2,2.2,2.9s-1,2.9-2.2,2.9h-2.5v-5.8ZM147.4,194h7.1v-6.1h4.1c4.2,0,7.9-3.4,7.9-9s-3.6-9.1-7.9-9.1h-11.3v24.2h0ZM133.8,175.9c1.3.1,2.2,1.3,2.1,2.5-.1,1.1-1,2-2.1,2.1h-2.4v-4.6h2.4ZM124.2,194h7.1v-8.4h.9l4.9,8.4h6.9v-1.5l-5-8c2.5-1.3,4.1-3.9,4.1-6.7,0-4.4-2.7-8-7.4-8h-11.4v24.2h0ZM106.2,181.9c0-4,1.5-5.9,3.7-5.9s3.8,1.8,3.8,5.9-1.5,5.8-3.8,5.8-3.7-1.8-3.7-5.8M99.3,181.9c0,7.1,3.9,12.4,10.6,12.4s10.7-5.3,10.7-12.4-3.9-12.5-10.7-12.5-10.6,5.3-10.6,12.5M83,187.8v-11.9h2.1c2.9,0,4.4,2.2,4.4,6s-1.5,5.9-4.4,5.9h-2.1ZM75.8,194h10.3c6.1,0,10.7-4.3,10.7-12.1s-4.6-12.2-10.7-12.2h-10.3v24.2h0ZM53.9,185.7c0,5.1,2.9,8.6,8.4,8.6s9-4,9-9.4v-15.1h-7.1v15.1c0,2.5-.7,3.4-1.7,3.4s-1.7-.9-1.8-3.1l-6.8.6h0ZM44.1,194h7.2v-24.2h-7.1v24.2h0ZM41.2,194v-6.2h-9.3v-18.1h-7.1v24.2h16.4ZM8.8,175.1h1.9c1.2,0,1.8.8,1.8,1.9s-.5,2-1.8,2h-1.9v-3.9ZM8.8,184.4h3.1c1.4,0,1.9.9,1.9,2.1s-.6,2.1-1.9,2.1h-3.2v-4.2h0ZM1.7,194h11.8c5,0,7.8-2.5,7.8-6.7.3-2.7-1.5-5.3-4.1-5.9,1.7-1.1,2.6-3,2.5-4.9,0-4.5-2.7-6.6-7.6-6.6H1.7v24.2h0Z"/>
  <g>
    <path class="st0" d="M72.3,21h-6.1l-8.7,19.7,7.5-3.9,3.9,5.3,3.9-5.3,7.5,3.9s-8-19.7-8-19.7Z"/>
    <path class="st0" d="M40.5,37.2c2.5,1.3,5.2,2.1,8,2.5,0,0,.2,0,.2,0,1.4-.1,2.4-1.3,2.3-2.7-.1-1.3-1.2-2.3-2.5-2.3-2.1-.5-4.1-1.2-6-2.1-2.2-1-3.3-5.9-3.6-10.2,1.5.3,3.5.7,5.5,1.3,7.4,2.1,8.2,3.9,8.2,3.9,0,0,0,.1,0,.2v1.2c0,1.4,1.1,2.6,2.6,2.6,1.4,0,2.6-1.1,2.6-2.6V5.1h3.9v7.1c0,2.7,2.1,4.9,4.8,5h4.4c2.7,0,4.9-2.1,5-4.8v-7.4h3.9v23.7c0,1.4,1.1,2.5,2.6,2.5,1.4,0,2.5-1.1,2.5-2.5v-1.2c0,0,0-.1,0-.2,0,0,.8-1.8,8.2-3.9,2-.6,4-1,5.5-1.3-.3,4.3-1.4,9.3-3.6,10.2-1.9.9-3.9,1.6-6,2.1-1.4,0-2.5,1.2-2.5,2.6,0,1.3,1,2.4,2.3,2.5,0,0,.2,0,.2,0,2.8-.4,5.4-1.3,7.9-2.5,3.2-1.4,5.3-5,6.2-10.6.4-2.4.6-4.9.5-7.4,0-1.4-1.2-2.5-2.6-2.5,0,0,0,0,0,0,0,0-.2,0-.3,0-3.1.5-6.2,1.1-9.2,2-2.4.6-4.7,1.5-6.9,2.5V5c0-2.7-2.1-4.9-4.8-5,0,0,0,0,0,0h-4.3c-2.7,0-4.9,2.1-5,4.8h0v7.4h-3.9v-7.1c0-2.7-2.1-4.9-4.8-5h-4.4c-2.7,0-4.9,2.1-5,4.8h0v16.5c-2.2-1.1-4.5-1.9-6.9-2.5-3-.8-6.1-1.5-9.2-2-1.4-.2-2.7.7-2.9,2.1,0,0,0,0,0,0,0,.1,0,.2,0,.3,0,2.5.1,4.9.5,7.4.9,5.7,3,9.3,6.2,10.6M84.5,89.1v6.5c0,.2,0,.4,0,.6,0,1,.8,1.8,1.7,1.9h.2c.1,0,.3,0,.4,0,.6,0,1.3.1,1.9.1.8,0,1.7,0,2.5-.2,0,0,.2,0,.3,0,1.4.5,2.9.7,4.4.7,3.5,0,6.8-1.6,9-4.4,9.9-.1,15.8-1.5,20-4.6,1.1-.8,1.4-2.4.5-3.6-.8-1.1-2.4-1.4-3.6-.5h0c-3.4,2.5-8.9,3.6-18.3,3.6-.9,0-1.7.5-2.2,1.3,0,0-.1.2-.2.3-.9,1.4-2.4,2.4-4.1,2.7,1.1-1.1,2-2.4,2.6-3.8.4-.9,0-1.9-.9-2.2-.9-.4-1.9,0-2.2,1h0c-1.3,2.8-3.9,4.8-7,5.1v-3.7l24.3-29.6c.1-.2.2-.4.3-.5l3-6.5h2.7l-1.9,4.7c-.5,1.3,0,2.7,1.3,3.3l7.4,3.6c.2,0,.3.1.5.2.5.1,1,.1,1.5,0,.2,0,.4-.1.6-.3,1-.6,4.7-1,8.4-1.1-.3,2.1-1.1,4.2-2.3,6-1.5.7-3.1,1-4.7,1-1.4-.1-2.6.9-2.7,2.3-.1,1.4.9,2.6,2.3,2.7,0,0,0,0,0,0h.5c2.4,0,4.7-.5,6.8-1.6,3.7-1.8,5.1-9.5,5.6-12.7.2-1.4-.8-2.7-2.2-2.9,0,0-.2,0-.3,0-2.2,0-9.2-.1-13,1.2l-4.2-2,1.9-4.6c.1-.3.2-.6.2-1,0-2.1-1.6-3.9-3.8-3.9h-4.9c-1.9,0-3.6,1.2-4.4,2.9l-2.9,6.3-24.6,30.1c-.4.5-.6,1-.6,1.6"/>
    <path class="st0" d="M112.9,68.9c-2.2.9-3.7,3-3.9,5.3.9.4,1.8.8,2.8,1.1,1.1.5,2.3.7,3.5.5,1.9-.7,3.4-2.1,4.2-4,1.2-.9,2.1-2.1,2.8-3.4-6.3,1.6-5.7-.7-9.3.5"/>
    <path class="st0" d="M57.7,118.9h-5.7l-6.2,10.6,6.2,10.6c-1.8.6-3.6,1.1-5.3,1.5l-5.6-9.7h-7.1l1.7-5.6h5.4l6.2-10.6-5.5-9.5,2.5-8.3,6.3-10.6-2-3.5,5.5-18.3.9,4.3c-3.7,7.6-.5,16.8,7.1,20.5,0,0,0,0,0,0,.4.2.8.4,1.2.5l-.4,2.1h-9.5l-6.2,10.6,6.2,10.6h5.1l-.9,4.6h0ZM163.9,114.7c-1.2-.2-2.6-.5-4.1-.8-5.7-1.2-11.6-2-17.5-2.2l-9.9-31.9c-.4-1.4-1.8-2.1-3.2-1.7-1.4.4-2.1,1.8-1.7,3.2l3.3,10.6-4.3,7.4,4.6,8h4.4l1.4,4.5c-2.3,0-4.8.3-7.4.6l-4.2-7.2h-4.2l-.9-5.9c-.2-1.4-1.5-2.4-2.9-2.1-1.4.2-2.3,1.5-2.1,2.9l2.2,14.6c-12.4,3.2-24.3,7.7-35.7,13.7-7.3,3.7-14.9,7-22.7,9.7l9.3-45.9c.2,0,.3,0,.5,0,8.5,0,15.4-6.8,15.4-15.3,0-2.4-.5-4.8-1.6-6.9l2.9-14.1c.3-1.4-.6-2.7-2-3-1.4-.3-2.7.6-3,2l-3.1,15c-.1.6,0,1.2.3,1.8,2.9,4.9,1.2,11.2-3.8,14.1s-11.2,1.2-14.1-3.8c-1.8-3.2-1.8-7,0-10.2.3-.5.4-1.2.3-1.8l-3.1-15.1c-.3-1.4-1.7-2.3-3-2-.9.2-1.6.9-1.9,1.8l-27.7,91.3c-7,.9-14,1-21,.3-1.7-.3-3.2.9-3.5,2.5-.3,1.7.9,3.2,2.5,3.5,0,0,0,0,0,0,3,.4,6.1.5,9.2.5,4.9,0,9.7-.3,14.5-.9,20.3-2.6,40-8.7,58.2-18.1,40-20.3,61.3-16.2,74.1-13.7,1.5.3,3,.6,4.3.8,1.7.3,3.3-.8,3.6-2.4.3-1.7-.8-3.3-2.4-3.6,0,0,0,0,0,0,0,0,0,0-.1,0M43.8,44.7l4.1,1.2c.5,1,1,2,1.5,3,.7,1.4,1.7,1.4,3.1,1,1.8-.3,3.6-1.1,5.2-2.1-.4-1.5-1.2-2.9-2.4-3.9-3.2-2.7-8.5-1.6-11.4.8M85.7,49.5c2.1-.5,2.7-2.4,3.7-4.1l4.6-1.3c-3.2-1.9-7-2.4-10.5-1.5-2.2,1-3.7,3-3.9,5.3,0,0,2.5,1,2.8,1.1,1.1.5,2.3.7,3.5.5"/>
    <path class="st0" d="M63,74.1c0,1.4,1.2,2.6,2.6,2.6,1.4,0,2.6-1.2,2.6-2.6,0-1.4-1.2-2.6-2.6-2.6-1.4,0-2.6,1.2-2.6,2.6M69.8,74.1c0,1.4,1.2,2.6,2.6,2.6,1.4,0,2.6-1.2,2.6-2.6,0-1.4-1.2-2.6-2.6-2.6-1.4,0-2.6,1.2-2.6,2.6"/>
  </g>
  <g>
    <path class="st0" d="M1.8,204.2h3.1c1.4,0,2.5,1.3,2.4,2.6,0,1.1-.9,2.1-2,2.3l2.3,2.8v.2h-1.3l-2.3-2.9h-1.1v2.9h-1.1v-7.9h0ZM2.9,205.2v3.1h1.7c.8,0,1.5-.6,1.5-1.3,0,0,0-.1,0-.2,0-.8-.5-1.5-1.3-1.5,0,0-.2,0-.2,0h-1.7Z"/>
    <path class="st0" d="M13,204c2.1,0,3.5,1.7,3.5,4.1s-1.4,4.1-3.5,4.1-3.5-1.7-3.5-4.1,1.4-4.1,3.5-4.1ZM13,211.1c1.4,0,2.4-1,2.4-3s-1-3-2.4-3-2.3,1.1-2.3,3,1,3,2.3,3Z"/>
    <path class="st0" d="M21.8,205.2v6.9h-1.1v-6.9h-2.4v-1h5.8v1h-2.3Z"/>
    <path class="st0" d="M29.1,205.2v6.9h-1.1v-6.9h-2.4v-1h5.8v1h-2.3Z"/>
    <path class="st0" d="M33.7,212.1v-7.9h5.3v1h-4.2v2.3h3.5v1h-3.5v2.6h4.2v1h-5.3,0Z"/>
    <path class="st0" d="M41.6,204.2h3.1c1.4,0,2.5,1.3,2.4,2.6,0,1.1-.9,2.1-2,2.3l2.3,2.8v.2h-1.3l-2.3-2.9h-1.1v2.9h-1.1v-7.9h0ZM42.7,205.2v3.1h1.7c.8,0,1.5-.6,1.5-1.3,0,0,0-.1,0-.2,0-.8-.5-1.5-1.3-1.5,0,0-.2,0-.2,0h-1.7Z"/>
    <path class="st0" d="M49.7,204.2h2.8c2,0,3.5,1.4,3.5,4s-1.5,3.9-3.5,3.9h-2.8v-7.9ZM52.4,211.1c1.5,0,2.5-1,2.5-2.9s-1-3-2.5-3h-1.5v5.9h1.5Z"/>
    <path class="st0" d="M60.7,204.2h1.3l2.7,7.9h-1.1l-.6-1.8h-3.3l-.6,1.8h-1.1l2.8-7.9h0ZM59.9,209.4h2.7l-1.3-4.1-1.4,4.1h0Z"/>
    <path class="st0" d="M73.2,206.1l-2.5,3.6h-.2l-2.5-3.6v6h-1.1v-7.9h1.1l2.6,3.8,2.6-3.8h1.1v7.9h-1.1v-6h0Z"/>
    <path class="st0" d="M84.1,205.2h-3.7v-1h5.2v.8l-3.7,6.1h3.7v1h-5.2v-.8l3.7-6.1Z"/>
    <path class="st0" d="M91.2,204c2.1,0,3.5,1.7,3.5,4.1s-1.4,4.1-3.5,4.1-3.5-1.7-3.5-4.1,1.4-4.1,3.5-4.1ZM91.2,211.1c1.4,0,2.4-1,2.4-3s-1-3-2.4-3-2.3,1.1-2.3,3,1,3,2.3,3Z"/>
    <path class="st0" d="M100.4,204c2.1,0,3.5,1.7,3.5,4.1s-1.4,4.1-3.5,4.1-3.5-1.7-3.5-4.1,1.4-4.1,3.5-4.1ZM100.4,211.1c1.4,0,2.4-1,2.4-3s-1-3-2.4-3-2.3,1.1-2.3,3,1,3,2.3,3Z"/>
  </g>
  <g>
    <path class="st0" d="M87.9,153.7h2.8c2,0,3.5,1.4,3.5,4s-1.5,3.9-3.5,3.9h-2.8v-7.9h0ZM90.6,160.6c1.5,0,2.5-1,2.5-2.9s-1-3-2.5-3h-1.5v5.9h1.5Z"/>
    <path class="st0" d="M96.9,153.7h1.1v7.9h-1.1v-7.9Z"/>
    <path class="st0" d="M101.1,161.6v-7.9h5.3v1h-4.2v2.3h3.4v1h-3.4v2.6h4.2v1h-5.3Z"/>
    <path class="st0" d="M109,153.7h3.1c1.4,0,2.5,1.3,2.4,2.6,0,1.1-.9,2.1-2,2.3l2.3,2.8v.2h-1.3l-2.3-2.9h-1.1v2.9h-1.1v-7.9h0ZM110.2,154.7v3.1h1.7c.8,0,1.5-.6,1.5-1.3,0,0,0-.1,0-.2,0-.8-.5-1.5-1.3-1.5,0,0-.2,0-.2,0h-1.7Z"/>
    <path class="st0" d="M122.5,155.5c-.5-.5-1.2-.8-2-.8-1.5,0-2.5,1.1-2.5,3s1.1,3,2.5,3c.6,0,1.2-.2,1.7-.6v-1.9h-2.1v-1h3.1v3.6c-.8.6-1.8,1-2.8,1-2,0-3.6-1.5-3.6-4.1s1.6-4.1,3.6-4.1c1,0,1.9.3,2.6,1l-.5.9h0Z"/>
    <path class="st0" d="M127.9,153.7h1.3l2.7,7.9h-1.1l-.6-1.8h-3.3l-.6,1.8h-1.1l2.8-7.9h0ZM127.2,159h2.7l-1.3-4.1-1.4,4.1h0Z"/>
    <path class="st0" d="M136.2,153.7h1.3l2.7,7.9h-1.1l-.6-1.8h-3.3l-.6,1.8h-1.1l2.8-7.9h0ZM135.4,159h2.7l-1.3-4.1-1.4,4.1h0Z"/>
    <path class="st0" d="M142.5,153.7h3.1c1.4,0,2.5,1.3,2.4,2.6,0,1.1-.9,2.1-2,2.3l2.3,2.8v.2h-1.3l-2.3-2.9h-1.1v2.9h-1.1v-7.9h0ZM143.6,154.7v3.1h1.7c.8,0,1.5-.6,1.5-1.3,0,0,0-.1,0-.2,0-.8-.5-1.5-1.3-1.5,0,0-.2,0-.2,0h-1.7Z"/>
    <path class="st0" d="M150.6,153.7h2.8c2,0,3.5,1.4,3.5,4s-1.5,3.9-3.5,3.9h-2.8v-7.9h0ZM153.3,160.6c1.5,0,2.5-1,2.5-2.9s-1-3-2.5-3h-1.5v5.9h1.5Z"/>
    <path class="st0" d="M159.6,161.6v-7.9h5.3v1h-4.2v2.3h3.4v1h-3.4v2.6h4.2v1h-5.3Z"/>
  </g>
</svg>